<svg width="48" height="53" viewBox="0 0 48 53" fill="none" xmlns="http://www.w3.org/2000/svg">
<path fill-rule="evenodd" clip-rule="evenodd" d="M32.4376 45.4396C31.8477 49.657 28.0539 52.8202 23.5893 52.8202C19.1248 52.8202 15.331 49.6573 14.74 45.44L14.4553 43.4089H32.7217L32.4376 45.4396Z" fill="#884F54"/>
<path fill-rule="evenodd" clip-rule="evenodd" d="M22.2725 52.7269C18.398 52.1764 15.2719 49.2354 14.74 45.44L14.4553 43.4089H30.088L29.8039 45.4396C29.273 49.2353 26.1468 52.1764 22.2725 52.7269Z" fill="#E4505B"/>
<path fill-rule="evenodd" clip-rule="evenodd" d="M4.06921 19.4223C4.06921 9.16399 12.8249 0.820312 23.5894 0.820312C34.3539 0.820312 43.1083 9.16399 43.1083 19.4223V39.6072H4.06921V19.4223Z" fill="#E6A75C"/>
<path fill-rule="evenodd" clip-rule="evenodd" d="M4.06921 19.4222C4.06921 13.901 6.60646 8.93537 10.6272 5.52575C13.5358 3.88385 16.9269 2.9397 20.5459 2.9397C31.3104 2.9397 40.0648 11.2834 40.0648 21.5417V39.6071H4.06921V19.4222Z" fill="#FFB966"/>
<path fill-rule="evenodd" clip-rule="evenodd" d="M43.2926 37.8047C45.4363 37.8047 47.1786 39.4651 47.1786 41.5081C47.1786 43.551 45.4362 45.2115 43.2926 45.2115H3.88605C1.74245 45.2115 0 43.5509 0 41.5081C0 39.4652 1.74222 37.8047 3.88605 37.8047H43.2926Z" fill="#E6A75C"/>
<path fill-rule="evenodd" clip-rule="evenodd" d="M44.392 45.0604C44.035 45.1608 43.6648 45.2117 43.2926 45.2114H3.88605C1.74245 45.2114 0 43.5509 0 41.5081C0 40.8454 0.183539 40.2231 0.504382 39.6845C0.861266 39.5842 1.23144 39.5334 1.60351 39.5337H41.0101C43.1538 39.5337 44.8961 41.1941 44.8961 43.2371C44.897 43.8763 44.7233 44.5047 44.392 45.0604Z" fill="#FFB966"/>
<path fill-rule="evenodd" clip-rule="evenodd" d="M20.9646 13.702C20.9646 6.5979 27.0271 0.820312 34.4818 0.820312C41.9366 0.820312 48 6.59757 48 13.702C48 20.807 41.9374 26.585 34.4818 26.585C27.0263 26.5849 20.9646 20.8066 20.9646 13.702Z" fill="#D7D7D7"/>
<path fill-rule="evenodd" clip-rule="evenodd" d="M20.9646 13.702C20.9646 6.65386 26.9323 0.912408 34.3062 0.822388C41.6802 0.912408 47.6489 6.65341 47.6489 13.702C47.6489 20.751 41.681 26.4928 34.3062 26.5827C26.9315 26.4927 20.9646 20.7506 20.9646 13.702Z" fill="#EFEFEF"/>
<path fill-rule="evenodd" clip-rule="evenodd" d="M22.7343 13.7021C22.7343 7.5288 28.0038 2.50696 34.4816 2.50696C40.9595 2.50696 46.2301 7.52858 46.2301 13.7021C46.2301 19.8761 40.9604 24.8984 34.4816 24.8984C28.003 24.8984 22.7343 19.8758 22.7343 13.7021Z" fill="#884F54"/>
<path fill-rule="evenodd" clip-rule="evenodd" d="M34.8622 2.51343C41.1647 2.70552 46.2302 7.64994 46.2302 13.7021C46.2302 19.7547 41.1654 24.6998 34.8622 24.8919C28.5591 24.6998 23.4952 19.7544 23.4952 13.7021C23.4952 7.65017 28.5598 2.70552 34.8622 2.51343Z" fill="#E4505B"/>
<path fill-rule="evenodd" clip-rule="evenodd" d="M34.4816 15.835C34.6046 15.835 34.7264 15.8119 34.84 15.767C34.9536 15.7222 35.0569 15.6564 35.1438 15.5735C35.2308 15.4906 35.2998 15.3922 35.3468 15.2839C35.3939 15.1756 35.418 15.0596 35.418 14.9424V7.98724C35.418 7.75057 35.3194 7.52358 35.1437 7.35623C34.9681 7.18887 34.7299 7.09485 34.4816 7.09485C33.9654 7.09485 33.5452 7.49431 33.5452 7.98724V14.9424C33.5453 15.4355 33.9654 15.835 34.4816 15.835ZM35.418 18.8925C35.418 18.6559 35.3194 18.4289 35.1437 18.2615C34.9681 18.0942 34.7299 18.0001 34.4816 18.0001C34.2332 18.0001 33.9951 18.0942 33.8194 18.2615C33.6438 18.4289 33.5452 18.6559 33.5452 18.8925V19.4178C33.5452 19.9098 33.9654 20.3102 34.4816 20.3102C34.9988 20.3102 35.418 19.9098 35.418 19.4178V18.8925Z" fill="#D7D7D7"/>
<path fill-rule="evenodd" clip-rule="evenodd" d="M34.4816 15.835C34.5538 15.835 34.6242 15.8272 34.6917 15.8124C34.7788 15.7296 34.8478 15.6312 34.8949 15.5229C34.942 15.4146 34.9661 15.2985 34.966 15.1813V8.22618C34.966 8.09198 34.9342 7.9595 34.8731 7.8386C34.812 7.7177 34.723 7.6115 34.6129 7.52791C34.5027 7.44431 34.3742 7.38546 34.2368 7.35576C34.0995 7.32605 33.9569 7.32624 33.8197 7.35632C33.7326 7.43905 33.6635 7.53737 33.6164 7.64562C33.5693 7.75388 33.5451 7.86994 33.5452 7.98713V14.9422C33.5453 15.4355 33.9654 15.835 34.4816 15.835ZM34.966 19.1315C34.966 18.9973 34.9343 18.8648 34.8732 18.7439C34.8121 18.6229 34.7231 18.5167 34.613 18.4331C34.5028 18.3495 34.3743 18.2906 34.237 18.2609C34.0996 18.2312 33.957 18.2313 33.8198 18.2614H33.8197C33.7325 18.3442 33.6634 18.4425 33.6163 18.5508C33.5692 18.6591 33.545 18.7752 33.5452 18.8924V19.4177C33.5452 19.9097 33.9654 20.3101 34.4816 20.3101C34.5521 20.3102 34.6225 20.3026 34.6912 20.2876C34.7784 20.2048 34.8475 20.1065 34.8946 19.9982C34.9417 19.89 34.9659 19.7739 34.9658 19.6567L34.966 19.1315Z" fill="#EFEFEF"/>
</svg>
