<svg width="75" height="69" viewBox="0 0 75 69" fill="none" xmlns="http://www.w3.org/2000/svg">
<path d="M44.25 3.44995H75L31.5 68.1311L0 66.8375L44.25 3.44995Z" fill="url(#paint0_linear_80_66)"/>
<path d="M59.6914 59.0693C41.7415 59.0693 31.4334 59.0693 28.7671 59.0693C26.1008 59.0693 24.3236 58.2276 23.4355 56.5441C22.5464 54.8607 22.5464 53.1353 23.4355 51.368C24.3236 49.6007 27.4339 47.0761 32.7665 43.7941C38.0981 40.5121 40.7639 37.6086 40.7639 35.0834C40.7639 32.5593 39.4307 30.8764 36.7644 30.0347C34.0992 29.1929 30.5448 30.455 26.1013 33.8208C21.6578 37.1877 20.3246 26.2474 22.1018 1" stroke="#FF7300" stroke-miterlimit="10"/>
<path d="M62.3571 61.5931C44.2292 61.5931 33.8321 61.5931 31.1657 61.5931C28.5005 61.5931 26.7676 60.7519 25.9669 59.0695C25.1673 57.3861 25.2564 55.7026 26.234 54.0192C27.2116 52.3357 30.3219 49.8111 35.565 46.4453C40.8081 43.0795 43.4296 40.134 43.4296 37.6088C43.4296 35.0836 42.0522 33.4007 39.2974 32.5601C36.5426 31.7183 33.0325 32.9804 28.767 36.3462C24.5016 39.7131 23.1684 28.7728 24.7676 3.52539" stroke="#FF7300" stroke-miterlimit="10"/>
<path d="M64.7575 64.118C46.8065 64.118 36.4979 64.118 33.8316 64.118C31.1663 64.118 29.4334 63.2763 28.6327 61.5928C27.8332 59.9104 27.9222 58.2275 28.8998 56.5441C29.8774 54.8606 32.9878 52.2935 38.2308 48.8428C43.4739 45.3931 46.1397 42.4476 46.2282 40.0063C46.3177 37.566 44.9851 35.925 42.2303 35.0833C39.4755 34.2416 35.8763 35.5461 31.4328 38.9969C26.9893 42.4476 25.6562 31.381 27.4334 5.79712" stroke="#FF7300" stroke-miterlimit="10"/>
<defs>
<linearGradient id="paint0_linear_80_66" x1="37.5" y1="3.44995" x2="37.5" y2="68.1311" gradientUnits="userSpaceOnUse">
<stop stop-color="#FF7300"/>
<stop offset="1" stop-color="#FFAD6A" stop-opacity="0"/>
</linearGradient>
</defs>
</svg>
