<svg version="1.1" xmlns="http://www.w3.org/2000/svg" xmlns:xlink="http://www.w3.org/1999/xlink" width="128px" height="128px" viewBox="0,0,256,256"><g fill="none" fill-rule="nonzero" stroke="none" stroke-width="1" stroke-linecap="butt" stroke-linejoin="miter" stroke-miterlimit="10" stroke-dasharray="" stroke-dashoffset="0" font-family="none" font-weight="none" font-size="none" text-anchor="none" style="mix-blend-mode: normal"><g transform="scale(2,2)"><path d="M117,56h-56.1c-3.3,0 -5.6,-3.3 -4.4,-6.4v0c1.4,-3.5 2.5,-7 3.2,-10.6c0.3,-1.3 0.5,-2.6 0.7,-3.9l0.6,-4c0.6,-4.4 -2.5,-8.4 -6.8,-9c-4.4,-0.6 -8.4,2.5 -9,6.8l-0.6,4c-1.9,13.5 -9.4,25.5 -20.6,33.1h-10h-2h-11v40h13v0v0l9.4,3.5c4.4,1.6 9.1,2.5 13.7,2.5h29.6c4.8,0 8.9,-3.4 9.7,-8.1l6.2,-33.9h34.4c3.9,0 7,-3.1 7,-7c0,-3.9 -3.1,-7 -7,-7z" fill="#ef7537"></path><path d="M66.7,115h-29.9c-4.8,0 -9.4,-0.8 -13.9,-2.5c-1.6,-0.6 -2.3,-2.3 -1.8,-3.9c0.6,-1.6 2.3,-2.3 3.9,-1.8c3.8,1.4 7.7,2.1 11.8,2.1h29.9c3.4,0 6.3,-2.4 6.9,-5.7l4.5,-24.8c0.3,-1.6 1.9,-2.7 3.5,-2.4c1.6,0.3 2.7,1.9 2.4,3.5l-4.5,24.8c-1.2,6.2 -6.6,10.7 -12.8,10.7zM14,109h-10c-1.7,0 -3,-1.3 -3,-3c0,-1.7 1.3,-3 3,-3h7v-34h-7c-1.7,0 -3,-1.3 -3,-3c0,-1.7 1.3,-3 3,-3h10c1.7,0 3,1.3 3,3v40c0,1.7 -1.3,3 -3,3zM117,53h-56.1c-0.8,0 -1.2,-0.5 -1.4,-0.7c-0.2,-0.2 -0.5,-0.8 -0.2,-1.6c1.6,-4 2.7,-7.6 3.4,-11.1c0.3,-1.3 0.5,-2.7 0.7,-4.1l0.6,-4c0.4,-2.9 -0.4,-5.8 -2.1,-8.1c-1.8,-2.3 -4.4,-3.9 -7.3,-4.3c-2.9,-0.4 -5.8,0.3 -8.1,2.1c-2.3,1.8 -3.9,4.4 -4.3,7.3l-0.6,4c-1.7,12.6 -8.7,23.9 -19.2,31c-1.4,0.9 -1.7,2.8 -0.8,4.2c0.9,1.4 2.8,1.7 4.2,0.8c11.9,-8.1 19.8,-20.9 21.8,-35.2l0.6,-4c0.2,-1.3 0.9,-2.5 1.9,-3.3c1.1,-0.8 2.4,-1.1 3.7,-1c1.3,0.2 2.5,0.9 3.3,1.9c0.8,1.1 1.1,2.4 1,3.7l-0.6,4c-0.2,1.2 -0.4,2.5 -0.6,3.7c-0.6,3.2 -1.6,6.5 -3.1,10.1c-0.9,2.4 -0.6,5 0.8,7.1c1.4,2.1 3.8,3.4 6.3,3.4h56.1c2.2,0 4,1.8 4,4c0,2.2 -1.8,4 -4,4h-41c-1.7,0 -3,1.3 -3,3c0,1.7 1.3,3 3,3h41c5.5,0 10,-4.5 10,-10c0,-5.5 -4.5,-9.9 -10,-9.9z" fill="#444b54"></path></g></g></svg>