<svg width="73" height="72" viewBox="0 0 73 72" fill="none" xmlns="http://www.w3.org/2000/svg">
<g clip-path="url(#clip0_138_1938)">
<path d="M66.1143 31.5H34.5581C32.7018 31.5 31.4081 29.6437 32.0831 27.9C32.8706 25.9312 33.4893 23.9625 33.8831 21.9375C34.0518 21.2062 34.1643 20.475 34.2768 19.7437L34.6143 17.4937C34.9518 15.0187 33.2081 12.7687 30.7893 12.4312C28.3143 12.0937 26.0643 13.8375 25.7268 16.2562L25.3893 18.5062C24.3206 26.1 20.1018 32.85 13.8018 37.125H8.17682H7.05182H0.864319V59.625H8.17682L13.4643 61.5937C15.9393 62.4937 18.5831 63 21.1706 63H37.8206C40.5206 63 42.8268 61.0875 43.2768 58.4437L46.7643 39.375H66.1143C68.3081 39.375 70.0518 37.6312 70.0518 35.4375C70.0518 33.2437 68.3081 31.5 66.1143 31.5Z" fill="#FF5600"/>
<path d="M37.8206 64.6875H21.0018C18.3018 64.6875 15.7143 64.2375 13.1831 63.2812C12.2831 62.9437 11.8893 61.9875 12.1706 61.0875C12.5081 60.1875 13.4643 59.7937 14.3643 60.075C16.5018 60.8625 18.6956 61.2562 21.0018 61.2562H37.8206C39.7331 61.2562 41.3643 59.9062 41.7018 58.05L44.2331 44.1C44.4018 43.2 45.3018 42.5812 46.2018 42.75C47.1018 42.9187 47.7206 43.8187 47.5518 44.7187L45.0206 58.6687C44.3456 62.1562 41.3081 64.6875 37.8206 64.6875ZM8.17682 61.3125H2.55182C1.59557 61.3125 0.864319 60.5812 0.864319 59.625C0.864319 58.6687 1.59557 57.9375 2.55182 57.9375H6.48932V38.8125H2.55182C1.59557 38.8125 0.864319 38.0812 0.864319 37.125C0.864319 36.1687 1.59557 35.4375 2.55182 35.4375H8.17682C9.13307 35.4375 9.86432 36.1687 9.86432 37.125V59.625C9.86432 60.5812 9.13307 61.3125 8.17682 61.3125ZM66.1143 29.8125H34.5581C34.1081 29.8125 33.8831 29.5312 33.7706 29.4187C33.6581 29.3062 33.4893 28.9687 33.6581 28.5187C34.5581 26.2687 35.1768 24.2437 35.5706 22.275C35.7393 21.5437 35.8518 20.7562 35.9643 19.9687L36.3018 17.7187C36.5268 16.0875 36.0768 14.4562 35.1206 13.1625C34.1081 11.8687 32.6456 10.9687 31.0143 10.7437C29.3831 10.5187 27.7518 10.9125 26.4581 11.925C25.1643 12.9375 24.2643 14.4 24.0393 16.0312L23.7018 18.2812C22.7456 25.3687 18.8081 31.725 12.9018 35.7187C12.1143 36.225 11.9456 37.2937 12.4518 38.0812C12.9581 38.8687 14.0268 39.0375 14.8143 38.5312C21.5081 33.975 25.9518 26.775 27.0768 18.7312L27.4143 16.4812C27.5268 15.75 27.9206 15.075 28.4831 14.625C29.1018 14.175 29.8331 14.0062 30.5643 14.0625C31.2956 14.175 31.9706 14.5687 32.4206 15.1312C32.8706 15.75 33.0393 16.4812 32.9831 17.2125L32.6456 19.4625C32.5331 20.1375 32.4206 20.8687 32.3081 21.5437C31.9706 23.3437 31.4081 25.2 30.5643 27.225C30.0581 28.575 30.2268 30.0375 31.0143 31.2187C31.8018 32.4 33.1518 33.1312 34.5581 33.1312H66.1143C67.3518 33.1312 68.3643 34.1437 68.3643 35.3812C68.3643 36.6187 67.3518 37.6312 66.1143 37.6312H43.0518C42.0956 37.6312 41.3643 38.3625 41.3643 39.3187C41.3643 40.275 42.0956 41.0062 43.0518 41.0062H66.1143C69.2081 41.0062 71.7393 38.475 71.7393 35.3812C71.7393 32.2875 69.2081 29.8125 66.1143 29.8125Z" fill="#444B54"/>
</g>
<defs>
<clipPath id="clip0_138_1938">
<rect width="72" height="72" fill="white" transform="translate(0.301819)"/>
</clipPath>
</defs>
</svg>
