<svg xmlns="http://www.w3.org/2000/svg" version="1.1" xmlns:xlink="http://www.w3.org/1999/xlink" xmlns:svgjs="http://svgjs.com/svgjs" width="512" height="512" x="0" y="0" viewBox="0 0 512 512" style="enable-background:new 0 0 512 512" xml:space="preserve" class=""><g><g fill-rule="evenodd" clip-rule="evenodd"><path fill="#884f54" d="M328.084 422.916c-5.04 37.808-37.451 66.165-75.592 66.165s-70.552-28.355-75.601-66.161l-2.432-18.208h156.052z" data-original="#e4404d" class="" opacity="1"></path><path fill="#e4505b" d="M241.242 488.243c-33.1-4.935-59.807-31.3-64.351-65.324l-2.432-18.208h133.552l-2.427 18.204c-4.536 34.027-31.243 60.393-64.342 65.328z" data-original="#fd4755" class="" opacity="1"></path><path fill="#e6a75c" d="M85.729 189.68c0-91.962 74.801-166.76 166.763-166.76 91.963 0 166.753 74.798 166.753 166.76v180.95H85.729z" data-original="#e6bd5c" class="" opacity="1"></path><path fill="#ffb966" d="M85.729 189.68c0-49.496 21.676-94.011 56.026-124.577 24.848-14.719 53.819-23.183 84.736-23.183 91.963 0 166.753 74.798 166.753 166.76v161.95H85.729z" data-original="#ffd266" class="" opacity="1"></path><path fill="#e6a75c" d="M420.819 354.471c18.314 0 33.199 14.885 33.199 33.2 0 18.314-14.886 33.199-33.199 33.199H84.164c-18.313 0-33.199-14.886-33.199-33.199 0-18.314 14.884-33.2 33.199-33.2z" data-original="#e6bd5c" class="" opacity="1"></path><path fill="#ffb966" d="M430.211 419.516a33.099 33.099 0 0 1-9.392 1.354H84.164c-18.313 0-33.199-14.886-33.199-33.199 0-5.941 1.568-11.52 4.309-16.348a33.12 33.12 0 0 1 9.39-1.352h336.655c18.314 0 33.199 14.885 33.199 33.2a32.992 32.992 0 0 1-4.307 16.345z" data-original="#ffd266" class="" opacity="1"></path><path fill="#d7d7d7" d="M230.068 138.4c0-63.686 51.793-115.48 115.479-115.48 63.687 0 115.488 51.791 115.488 115.48 0 63.693-51.794 115.491-115.488 115.491-63.693-.001-115.479-51.801-115.479-115.491z" data-original="#d7d7d7" class=""></path><path fill="#efefef" d="M230.068 138.4c0-63.184 50.983-114.654 113.979-115.461 62.997.807 113.988 52.273 113.988 115.461 0 63.192-50.984 114.665-113.988 115.471-63.003-.807-113.979-52.283-113.979-115.471z" data-original="#efefef" class=""></path><path fill="#884f54" d="M245.187 138.4c0-55.341 45.018-100.36 100.359-100.36 55.342 0 100.369 45.017 100.369 100.36 0 55.348-45.02 100.371-100.369 100.371-55.347 0-100.359-45.026-100.359-100.371z" data-original="#e4404d" class="" opacity="1"></path><path fill="#e4505b" d="M348.797 38.098c53.843 1.722 97.118 46.047 97.118 100.302 0 54.26-43.269 98.591-97.118 100.313-53.848-1.722-97.11-46.056-97.11-100.313 0-54.253 43.268-98.58 97.11-100.302z" data-original="#fd4755" class="" opacity="1"></path><path fill="#d7d7d7" d="M345.546 157.521a8 8 0 0 0 8-8.002v-62.35a8 8 0 0 0-8-8c-4.41 0-8 3.581-8 8v62.35c.001 4.421 3.59 8.002 8 8.002zm8 27.41a8 8 0 1 0-16 0v4.709c0 4.41 3.59 8 8 8 4.419 0 8-3.59 8-8z" data-original="#d7d7d7" class=""></path><path fill="#efefef" d="M345.546 157.521c.617 0 1.218-.07 1.795-.202a7.98 7.98 0 0 0 2.343-5.658v-62.35a8 8 0 0 0-9.793-7.798 7.974 7.974 0 0 0-2.345 5.655v62.35c.001 4.422 3.59 8.003 8 8.003zm4.138 29.552a8 8 0 0 0-9.792-7.8h-.001a7.975 7.975 0 0 0-2.345 5.657v4.709c0 4.41 3.59 8 8 8a8 8 0 0 0 1.791-.202 7.976 7.976 0 0 0 2.346-5.656v-4.708z" data-original="#efefef" class=""></path></g></g></svg>