<svg xmlns="http://www.w3.org/2000/svg" version="1.1" xmlns:xlink="http://www.w3.org/1999/xlink" xmlns:svgjs="http://svgjs.com/svgjs" width="512" height="512" x="0" y="0" viewBox="0 0 512 512" style="enable-background:new 0 0 512 512" xml:space="preserve" class=""><g><path fill="#ffb56b" d="m480.212 457.028-134.164-41.273c-11.693-3.597-14.394-18.925-4.635-26.303l25.741-19.459c6.608-4.996 7.916-14.403 2.92-21.011L284.423 235.68a15 15 0 0 0-18.438-4.486l-74.319 35.547a15 15 0 0 1-18.438-4.486L18.578 57.68C8.38 44.189 11.049 24.984 24.54 14.786c13.491-10.199 32.695-7.53 42.894 5.961l124.489 164.677a15 15 0 0 0 18.438 4.486l74.319-35.547a15 15 0 0 1 18.438 4.486l115.812 153.2c4.996 6.608 14.403 7.916 21.011 2.92l32.514-24.579c9.759-7.377 23.77-.599 24.042 11.632l3.123 140.334c.227 10.23-9.628 17.68-19.408 14.672z" data-original="#6fc3bc" class="" opacity="1"></path><circle cx="121.277" cy="403.164" r="100.232" fill="#ffa200" data-original="#b8e0d3" class="" opacity="1"></circle><path d="M484.701 464.712c-2.18 0-4.381-.327-6.547-.994L343.99 422.446a21.908 21.908 0 0 1-15.197-17.211c-1.439-8.174 1.778-16.361 8.4-21.366l25.739-19.459a7.947 7.947 0 0 0 3.1-5.281 7.94 7.94 0 0 0-1.542-5.925l-85.65-113.302c-2.284-3.021-6.421-4.028-9.834-2.394l-74.318 35.547c-9.394 4.494-20.766 1.726-27.043-6.578L12.995 61.901c-6.061-8.017-8.636-17.912-7.253-27.866 1.384-9.953 6.56-18.772 14.576-24.833C36.868-3.31 60.507-.022 73.017 16.527l124.489 164.676a8.028 8.028 0 0 0 9.833 2.394l74.319-35.547c9.39-4.493 20.764-1.725 27.042 6.579l115.812 153.2c2.662 3.52 7.688 4.218 11.207 1.558l32.513-24.579a21.9 21.9 0 0 1 22.849-2.254c7.472 3.615 12.229 11.016 12.413 19.313l3.123 140.334c.159 7.151-3.022 13.727-8.729 18.04-3.896 2.946-8.489 4.471-13.187 4.471zM272.407 222.741c6.738 0 13.341 3.085 17.601 8.718l85.65 113.302a21.856 21.856 0 0 1 4.241 16.296 21.857 21.857 0 0 1-8.523 14.521l-25.74 19.459c-2.444 1.848-3.586 4.752-3.055 7.77s2.598 5.357 5.526 6.259l134.164 41.272c2.481.764 5.1.304 7.176-1.265a7.92 7.92 0 0 0 3.175-6.561l-3.123-140.334c-.068-3.062-1.756-5.688-4.514-7.022-2.757-1.334-5.863-1.028-8.31.819l-32.513 24.579c-9.678 7.315-23.503 5.395-30.817-4.282l-115.812-153.2a8.026 8.026 0 0 0-9.833-2.394l-74.319 35.547c-9.391 4.494-20.765 1.726-27.042-6.58L61.849 24.969a23.467 23.467 0 0 0-15.592-9.153c-6.252-.867-12.463.749-17.497 4.554a23.467 23.467 0 0 0-9.151 15.592 23.459 23.459 0 0 0 4.554 17.496l154.649 204.576c2.281 3.021 6.418 4.024 9.834 2.393l74.318-35.547a21.835 21.835 0 0 1 9.443-2.139zm-151.13 287.654c-59.128 0-107.231-48.104-107.231-107.231S62.15 295.933 121.277 295.933s107.231 48.104 107.231 107.231-48.103 107.231-107.231 107.231zm0-200.463c-51.408 0-93.231 41.823-93.231 93.231s41.823 93.231 93.231 93.231 93.231-41.823 93.231-93.231-41.823-93.231-93.231-93.231zm45.507 148.615a7 7 0 0 1-7-7c0-21.232-17.274-38.507-38.507-38.507S82.77 430.315 82.77 451.547a7 7 0 1 1-14 0c0-28.952 23.555-52.507 52.507-52.507s52.507 23.555 52.507 52.507a7 7 0 0 1-7 7zM95.41 371.01c0 9.324-7.558 16.882-16.882 16.882s-16.882-7.558-16.882-16.882 7.558-16.882 16.882-16.882 16.882 7.559 16.882 16.882zm85.497 0c0 9.324-7.558 16.882-16.882 16.882s-16.882-7.558-16.882-16.882 7.558-16.882 16.882-16.882 16.882 7.559 16.882 16.882z" fill="#554747" data-original="#000000" class="" opacity="1"></path></g></svg>