<svg width="48" height="46" viewBox="0 0 48 46" fill="none" xmlns="http://www.w3.org/2000/svg">
<path d="M6.375 13.5C6.375 12.5572 6.375 12.0858 6.66789 11.7929C6.96079 11.5 7.43219 11.5 8.375 11.5H32.7341C33.252 11.5 33.511 11.5 33.7303 11.616C33.9497 11.732 34.0955 11.946 34.387 12.3741L40.8581 21.8741C41.2294 22.4192 41.4151 22.6918 41.4151 23C41.4151 23.3082 41.2294 23.5808 40.8581 24.1259L34.387 33.6259C34.0955 34.054 33.9497 34.268 33.7303 34.384C33.511 34.5 33.252 34.5 32.7341 34.5H8.375C7.43219 34.5 6.96079 34.5 6.66789 34.2071C6.375 33.9142 6.375 33.4428 6.375 32.5V13.5Z" fill="#7E869E" fill-opacity="0.25" stroke="#222222" stroke-width="1.4"/>
<ellipse cx="29.875" cy="23" rx="1.95833" ry="1.91667" fill="#222222" stroke="#222222" stroke-width="1.4"/>
</svg>
