<svg width="271" height="68" viewBox="0 0 271 68" fill="none" xmlns="http://www.w3.org/2000/svg">
<path d="M83.1683 35.002H87.3083V37H80.6483V24.436H83.1683V35.002ZM91.43 24.436V37H88.91V24.436H91.43ZM107.618 24.436V37H105.098V28.828L101.732 37H99.8237L96.4397 28.828V37H93.9197V24.436H96.7817L100.778 33.778L104.774 24.436H107.618ZM112.629 24.436V37H110.109V24.436H112.629ZM123.669 24.436V26.47H120.321V37H117.801V26.47H114.453V24.436H123.669ZM128.028 35.002H132.168V37H125.508V24.436H128.028V35.002ZM136.289 26.47V29.62H140.519V31.618H136.289V34.948H141.059V37H133.769V24.418H141.059V26.47H136.289ZM147.687 37.126C146.811 37.126 146.019 36.976 145.311 36.676C144.615 36.376 144.063 35.944 143.655 35.38C143.247 34.816 143.037 34.15 143.025 33.382H145.725C145.761 33.898 145.941 34.306 146.265 34.606C146.601 34.906 147.057 35.056 147.633 35.056C148.221 35.056 148.683 34.918 149.019 34.642C149.355 34.354 149.523 33.982 149.523 33.526C149.523 33.154 149.409 32.848 149.181 32.608C148.953 32.368 148.665 32.182 148.317 32.05C147.981 31.906 147.513 31.75 146.913 31.582C146.097 31.342 145.431 31.108 144.915 30.88C144.411 30.64 143.973 30.286 143.601 29.818C143.241 29.338 143.061 28.702 143.061 27.91C143.061 27.166 143.247 26.518 143.619 25.966C143.991 25.414 144.513 24.994 145.185 24.706C145.857 24.406 146.625 24.256 147.489 24.256C148.785 24.256 149.835 24.574 150.639 25.21C151.455 25.834 151.905 26.71 151.989 27.838H149.217C149.193 27.406 149.007 27.052 148.659 26.776C148.323 26.488 147.873 26.344 147.309 26.344C146.817 26.344 146.421 26.47 146.121 26.722C145.833 26.974 145.689 27.34 145.689 27.82C145.689 28.156 145.797 28.438 146.013 28.666C146.241 28.882 146.517 29.062 146.841 29.206C147.177 29.338 147.645 29.494 148.245 29.674C149.061 29.914 149.727 30.154 150.243 30.394C150.759 30.634 151.203 30.994 151.575 31.474C151.947 31.954 152.133 32.584 152.133 33.364C152.133 34.036 151.959 34.66 151.611 35.236C151.263 35.812 150.753 36.274 150.081 36.622C149.409 36.958 148.611 37.126 147.687 37.126ZM158.656 37.126C157.78 37.126 156.988 36.976 156.28 36.676C155.584 36.376 155.032 35.944 154.624 35.38C154.216 34.816 154.006 34.15 153.994 33.382H156.694C156.73 33.898 156.91 34.306 157.234 34.606C157.57 34.906 158.026 35.056 158.602 35.056C159.19 35.056 159.652 34.918 159.988 34.642C160.324 34.354 160.492 33.982 160.492 33.526C160.492 33.154 160.378 32.848 160.15 32.608C159.922 32.368 159.634 32.182 159.286 32.05C158.95 31.906 158.482 31.75 157.882 31.582C157.066 31.342 156.4 31.108 155.884 30.88C155.38 30.64 154.942 30.286 154.57 29.818C154.21 29.338 154.03 28.702 154.03 27.91C154.03 27.166 154.216 26.518 154.588 25.966C154.96 25.414 155.482 24.994 156.154 24.706C156.826 24.406 157.594 24.256 158.458 24.256C159.754 24.256 160.804 24.574 161.608 25.21C162.424 25.834 162.874 26.71 162.958 27.838H160.186C160.162 27.406 159.976 27.052 159.628 26.776C159.292 26.488 158.842 26.344 158.278 26.344C157.786 26.344 157.39 26.47 157.09 26.722C156.802 26.974 156.658 27.34 156.658 27.82C156.658 28.156 156.766 28.438 156.982 28.666C157.21 28.882 157.486 29.062 157.81 29.206C158.146 29.338 158.614 29.494 159.214 29.674C160.03 29.914 160.696 30.154 161.212 30.394C161.728 30.634 162.172 30.994 162.544 31.474C162.916 31.954 163.102 32.584 163.102 33.364C163.102 34.036 162.928 34.66 162.58 35.236C162.232 35.812 161.722 36.274 161.05 36.622C160.378 36.958 159.58 37.126 158.656 37.126Z" fill="white"/>
<path d="M173.914 37.126C173.038 37.126 172.246 36.976 171.538 36.676C170.842 36.376 170.29 35.944 169.882 35.38C169.474 34.816 169.264 34.15 169.252 33.382H171.952C171.988 33.898 172.168 34.306 172.492 34.606C172.828 34.906 173.284 35.056 173.86 35.056C174.448 35.056 174.91 34.918 175.246 34.642C175.582 34.354 175.75 33.982 175.75 33.526C175.75 33.154 175.636 32.848 175.408 32.608C175.18 32.368 174.892 32.182 174.544 32.05C174.208 31.906 173.74 31.75 173.14 31.582C172.324 31.342 171.658 31.108 171.142 30.88C170.638 30.64 170.2 30.286 169.828 29.818C169.468 29.338 169.288 28.702 169.288 27.91C169.288 27.166 169.474 26.518 169.846 25.966C170.218 25.414 170.74 24.994 171.412 24.706C172.084 24.406 172.852 24.256 173.716 24.256C175.012 24.256 176.062 24.574 176.866 25.21C177.682 25.834 178.132 26.71 178.216 27.838H175.444C175.42 27.406 175.234 27.052 174.886 26.776C174.55 26.488 174.1 26.344 173.536 26.344C173.044 26.344 172.648 26.47 172.348 26.722C172.06 26.974 171.916 27.34 171.916 27.82C171.916 28.156 172.024 28.438 172.24 28.666C172.468 28.882 172.744 29.062 173.068 29.206C173.404 29.338 173.872 29.494 174.472 29.674C175.288 29.914 175.954 30.154 176.47 30.394C176.986 30.634 177.43 30.994 177.802 31.474C178.174 31.954 178.36 32.584 178.36 33.364C178.36 34.036 178.186 34.66 177.838 35.236C177.49 35.812 176.98 36.274 176.308 36.622C175.636 36.958 174.838 37.126 173.914 37.126ZM189.095 24.436V26.47H185.747V37H183.227V26.47H179.879V24.436H189.095ZM198.637 34.606H193.633L192.805 37H190.159L194.677 24.418H197.611L202.129 37H199.465L198.637 34.606ZM197.953 32.59L196.135 27.334L194.317 32.59H197.953ZM210.298 37L207.526 32.104H206.338V37H203.818V24.436H208.534C209.506 24.436 210.334 24.61 211.018 24.958C211.702 25.294 212.212 25.756 212.548 26.344C212.896 26.92 213.07 27.568 213.07 28.288C213.07 29.116 212.83 29.866 212.35 30.538C211.87 31.198 211.156 31.654 210.208 31.906L213.214 37H210.298ZM206.338 30.214H208.444C209.128 30.214 209.638 30.052 209.974 29.728C210.31 29.392 210.478 28.93 210.478 28.342C210.478 27.766 210.31 27.322 209.974 27.01C209.638 26.686 209.128 26.524 208.444 26.524H206.338V30.214ZM223.899 24.436V26.47H220.551V37H218.031V26.47H214.683V24.436H223.899ZM233.406 29.512V31.636H225.774V29.512H233.406ZM238.716 24.436V32.212C238.716 33.064 238.938 33.718 239.382 34.174C239.826 34.618 240.45 34.84 241.254 34.84C242.07 34.84 242.7 34.618 243.144 34.174C243.588 33.718 243.81 33.064 243.81 32.212V24.436H246.348V32.194C246.348 33.262 246.114 34.168 245.646 34.912C245.19 35.644 244.572 36.196 243.792 36.568C243.024 36.94 242.166 37.126 241.218 37.126C240.282 37.126 239.43 36.94 238.662 36.568C237.906 36.196 237.306 35.644 236.862 34.912C236.418 34.168 236.196 33.262 236.196 32.194V24.436H238.716ZM257.945 28.324C257.945 28.996 257.783 29.626 257.459 30.214C257.147 30.802 256.649 31.276 255.965 31.636C255.293 31.996 254.441 32.176 253.409 32.176H251.303V37H248.783V24.436H253.409C254.381 24.436 255.209 24.604 255.893 24.94C256.577 25.276 257.087 25.738 257.423 26.326C257.771 26.914 257.945 27.58 257.945 28.324ZM253.301 30.142C253.997 30.142 254.513 29.986 254.849 29.674C255.185 29.35 255.353 28.9 255.353 28.324C255.353 27.1 254.669 26.488 253.301 26.488H251.303V30.142H253.301ZM264.072 37.126C263.196 37.126 262.404 36.976 261.696 36.676C261 36.376 260.448 35.944 260.04 35.38C259.632 34.816 259.422 34.15 259.41 33.382H262.11C262.146 33.898 262.326 34.306 262.65 34.606C262.986 34.906 263.442 35.056 264.018 35.056C264.606 35.056 265.068 34.918 265.404 34.642C265.74 34.354 265.908 33.982 265.908 33.526C265.908 33.154 265.794 32.848 265.566 32.608C265.338 32.368 265.05 32.182 264.702 32.05C264.366 31.906 263.898 31.75 263.298 31.582C262.482 31.342 261.816 31.108 261.3 30.88C260.796 30.64 260.358 30.286 259.986 29.818C259.626 29.338 259.446 28.702 259.446 27.91C259.446 27.166 259.632 26.518 260.004 25.966C260.376 25.414 260.898 24.994 261.57 24.706C262.242 24.406 263.01 24.256 263.874 24.256C265.17 24.256 266.22 24.574 267.024 25.21C267.84 25.834 268.29 26.71 268.374 27.838H265.602C265.578 27.406 265.392 27.052 265.044 26.776C264.708 26.488 264.258 26.344 263.694 26.344C263.202 26.344 262.806 26.47 262.506 26.722C262.218 26.974 262.074 27.34 262.074 27.82C262.074 28.156 262.182 28.438 262.398 28.666C262.626 28.882 262.902 29.062 263.226 29.206C263.562 29.338 264.03 29.494 264.63 29.674C265.446 29.914 266.112 30.154 266.628 30.394C267.144 30.634 267.588 30.994 267.96 31.474C268.332 31.954 268.518 32.584 268.518 33.364C268.518 34.036 268.344 34.66 267.996 35.236C267.648 35.812 267.138 36.274 266.466 36.622C265.794 36.958 264.996 37.126 264.072 37.126Z" fill="#FF8A00"/>
<path d="M44.25 3.31885H75L31.5 68L0 66.7064L44.25 3.31885Z" fill="url(#paint0_linear_77_64)"/>
<path d="M59.6915 58.9382C41.7416 58.9382 31.4335 58.9382 28.7672 58.9382C26.1009 58.9382 24.3237 58.0965 23.4356 56.413C22.5465 54.7296 22.5465 53.0042 23.4356 51.2369C24.3237 49.4696 27.434 46.945 32.7666 43.663C38.0982 40.381 40.764 37.4775 40.764 34.9523C40.764 32.4282 39.4308 30.7453 36.7645 29.9036C34.0993 29.0618 30.5449 30.3239 26.1014 33.6897C21.6579 37.0566 20.3247 26.1163 22.1019 0.868896" stroke="#FF7300" stroke-miterlimit="10"/>
<path d="M62.3572 61.462C44.2292 61.462 33.8321 61.462 31.1658 61.462C28.5005 61.462 26.7676 60.6208 25.967 58.9384C25.1674 57.255 25.2564 55.5715 26.234 53.8881C27.2116 52.2046 30.322 49.68 35.565 46.3142C40.8081 42.9484 43.4296 40.0029 43.4296 37.4777C43.4296 34.9525 42.0523 33.2696 39.2975 32.429C36.5427 31.5872 33.0325 32.8493 28.7671 36.2151C24.5016 39.582 23.1685 28.6417 24.7676 3.39429" stroke="#FF7300" stroke-miterlimit="10"/>
<path d="M64.7576 63.9869C46.8066 63.9869 36.498 63.9869 33.8316 63.9869C31.1664 63.9869 29.4335 63.1451 28.6328 61.4617C27.8332 59.7793 27.9223 58.0964 28.8999 56.413C29.8775 54.7295 32.9878 52.1624 38.2309 48.7117C43.474 45.262 46.1397 42.3165 46.2282 39.8752C46.3178 37.4349 44.9852 35.7939 42.2304 34.9522C39.4756 34.1105 35.8764 35.415 31.4329 38.8658C26.9894 42.3165 25.6563 31.2499 27.4335 5.66602" stroke="#FF7300" stroke-miterlimit="10"/>
<defs>
<linearGradient id="paint0_linear_77_64" x1="37.5" y1="3.31885" x2="37.5" y2="68" gradientUnits="userSpaceOnUse">
<stop stop-color="#FF7300"/>
<stop offset="1" stop-color="#FFAD6A" stop-opacity="0"/>
</linearGradient>
</defs>
</svg>
