<svg width="28" height="32" viewBox="0 0 28 32" fill="none" xmlns="http://www.w3.org/2000/svg">
<path fill-rule="evenodd" clip-rule="evenodd" d="M13.5649 31.8619C13.7421 31.9544 13.9403 32.0015 14.1384 31.9999C14.3365 31.9984 14.533 31.9497 14.7118 31.8556L20.4204 28.8039C22.0393 27.941 23.307 26.9761 24.296 25.8527C26.4464 23.4051 27.6206 20.2813 27.5997 17.0602L27.532 6.43517C27.5256 5.21138 26.7218 4.11938 25.533 3.72243L14.9132 0.159303C14.2737 -0.0572148 13.573 -0.0525079 12.9448 0.170286L2.36519 3.8605C1.18287 4.27314 0.39359 5.37298 0.400033 6.59834L0.467686 17.2155C0.488626 20.4413 1.70315 23.551 3.88898 25.9735C4.88767 27.0812 6.16663 28.032 7.80318 28.8808L13.5649 31.8619ZM12.0537 19.3743C12.2921 19.6034 12.6014 19.7163 12.9107 19.7132C13.2199 19.7116 13.5276 19.5955 13.7628 19.3633L20.0013 13.213C20.4701 12.7501 20.4652 12.0064 19.9917 11.5498C19.5165 11.0933 18.7514 11.0964 18.2826 11.5593L12.8929 16.8718L10.6862 14.7505C10.211 14.294 9.44748 14.2987 8.97713 14.7615C8.5084 15.2244 8.51323 15.9681 8.98841 16.4246L12.0537 19.3743Z" fill="#FF8A00"/>
</svg>
