<svg width="50" height="50" viewBox="0 0 50 50" fill="none" xmlns="http://www.w3.org/2000/svg">
<path d="M47.3655 44.7556L33.9824 40.6997C32.816 40.3462 32.5466 38.8398 33.5201 38.1148L36.0878 36.2025C36.7469 35.7115 36.8774 34.7871 36.3791 34.1377L27.8352 23.0032C27.6272 22.7322 27.3305 22.5402 26.9954 22.4599C26.6602 22.3796 26.3072 22.4158 25.996 22.5624L18.5826 26.0557C18.2714 26.2023 17.9184 26.2385 17.5832 26.1582C17.2481 26.0779 16.9514 25.8859 16.7434 25.6148L1.31682 5.51076C0.299552 4.18497 0.565789 2.29765 1.91154 1.29546C3.25728 0.293184 5.17291 0.555473 6.19028 1.88127L18.6082 18.0645C18.8162 18.3355 19.1129 18.5275 19.4481 18.6078C19.7832 18.6882 20.1363 18.652 20.4475 18.5053L27.8609 15.012C28.1721 14.8654 28.5251 14.8292 28.8602 14.9095C29.1954 14.9899 29.4921 15.1818 29.7001 15.4529L41.2525 30.5082C41.7509 31.1576 42.6892 31.2861 43.3484 30.7952L46.5917 28.3797C47.5652 27.6548 48.9628 28.3209 48.9899 29.5228L49.3015 43.3138C49.3241 44.3191 48.3411 45.0513 47.3655 44.7556Z" fill="#FFB56B"/>
<path d="M11.5612 49.3121C17.0831 49.3121 21.5595 44.9021 21.5595 39.4621C21.5595 34.0221 17.0831 29.6121 11.5612 29.6121C6.03931 29.6121 1.56293 34.0221 1.56293 39.4621C1.56293 44.9021 6.03931 49.3121 11.5612 49.3121Z" fill="#FFA200"/>
<path d="M47.8133 45.5106C47.5958 45.5106 47.3763 45.4785 47.1602 45.4129L33.7771 41.357C33.3904 41.2409 33.0439 41.0213 32.7763 40.7227C32.5086 40.4241 32.3303 40.0582 32.2612 39.6657C32.1177 38.8624 32.4386 38.0578 33.0991 37.566L35.6666 35.6537C35.7505 35.5916 35.821 35.5138 35.874 35.4247C35.9271 35.3357 35.9617 35.2371 35.9759 35.1347C35.9906 35.0325 35.9846 34.9284 35.9582 34.8284C35.9318 34.7285 35.8855 34.6347 35.8221 34.5525L27.2783 23.418C27.0505 23.1211 26.6378 23.0222 26.2974 23.1827L18.8841 26.676C17.947 27.1177 16.8126 26.8456 16.1865 26.0296L0.759906 5.92542C0.155312 5.13757 -0.101548 4.16516 0.0364085 3.18696C0.174465 2.20885 0.690778 1.34219 1.49039 0.746558C3.14127 -0.483026 5.4993 -0.159906 6.74719 1.4664L19.1652 17.6495C19.2764 17.7937 19.4346 17.8957 19.6132 17.9386C19.7918 17.9814 19.9799 17.9624 20.146 17.8848L27.5594 14.3915C28.4961 13.9499 29.6307 14.222 30.2569 15.038L41.8093 30.0934C42.0749 30.4393 42.5762 30.5079 42.9272 30.2465L46.1705 27.831C46.4924 27.5899 46.8758 27.4415 47.2783 27.4024C47.6807 27.3633 48.0862 27.435 48.4497 27.6095C49.195 27.9648 49.6696 28.6921 49.6879 29.5075L49.9994 43.2984C50.0153 44.0012 49.698 44.6474 49.1287 45.0712C48.7401 45.3608 48.2819 45.5106 47.8133 45.5106ZM26.6366 21.7315C27.3088 21.7315 27.9674 22.0347 28.3924 22.5883L36.9361 33.7227C37.1106 33.9489 37.2378 34.2068 37.3104 34.4817C37.383 34.7566 37.3996 35.043 37.3591 35.3242C37.3202 35.6056 37.225 35.8766 37.0791 36.1216C36.9332 36.3665 36.7394 36.5805 36.5089 36.7512L33.9413 38.6635C33.6975 38.8451 33.5836 39.1305 33.6366 39.4271C33.6896 39.7237 33.8958 39.9535 34.1878 40.0422L47.5709 44.0981C47.8184 44.1731 48.0796 44.1279 48.2867 43.9737C48.388 43.8991 48.4697 43.8016 48.5248 43.6894C48.5799 43.5772 48.6069 43.4536 48.6034 43.329L48.2919 29.538C48.2851 29.2371 48.1167 28.979 47.8416 28.8479C47.5666 28.7169 47.2568 28.7469 47.0127 28.9284L43.7695 31.3439C42.8041 32.0627 41.425 31.874 40.6954 30.9231L29.143 15.8677C29.0318 15.7235 28.8736 15.6214 28.6949 15.5786C28.5163 15.5358 28.3282 15.5548 28.1621 15.6325L20.7487 19.1258C19.8119 19.5674 18.6774 19.2954 18.0512 18.4791L5.63316 2.29602C5.44717 2.05222 5.21393 1.84718 4.94696 1.69279C4.67999 1.53839 4.38458 1.43769 4.07784 1.39653C3.45419 1.31133 2.83464 1.47014 2.33249 1.84406C2.08505 2.02732 1.87697 2.25711 1.72029 2.52012C1.5636 2.78313 1.46142 3.07415 1.41966 3.37633C1.37618 3.67828 1.39394 3.98572 1.47192 4.28086C1.5499 4.576 1.68654 4.85296 1.87393 5.0957L17.3004 25.1999C17.5279 25.4968 17.9406 25.5953 18.2814 25.435L25.6947 21.9418C25.9887 21.8031 26.3106 21.7313 26.6366 21.7315ZM11.5612 50C5.66309 50 0.864745 45.2727 0.864745 39.4622C0.864745 33.6516 5.66319 28.9243 11.5612 28.9243C17.4592 28.9243 22.2576 33.6516 22.2576 39.4622C22.2576 45.2727 17.4593 50 11.5612 50ZM11.5612 30.3C6.43317 30.3 2.26127 34.4101 2.26127 39.4621C2.26127 44.514 6.43317 48.6241 11.5612 48.6241C16.6892 48.6241 20.8611 44.514 20.8611 39.4621C20.8611 34.4101 16.6892 30.3 11.5612 30.3ZM16.1006 44.9048C15.9154 44.9048 15.7378 44.8323 15.6068 44.7033C15.4759 44.5743 15.4023 44.3993 15.4023 44.2169C15.4023 42.1303 13.6792 40.4327 11.5612 40.4327C9.44317 40.4327 7.72007 42.1303 7.72007 44.2169C7.72007 44.3993 7.6465 44.5743 7.51555 44.7033C7.3846 44.8323 7.207 44.9048 7.0218 44.9048C6.83661 44.9048 6.65901 44.8323 6.52806 44.7033C6.39711 44.5743 6.32354 44.3993 6.32354 44.2169C6.32354 41.3717 8.67319 39.0569 11.5612 39.0569C14.4492 39.0569 16.7988 41.3717 16.7988 44.2169C16.7988 44.3993 16.7253 44.5743 16.5943 44.7033C16.4634 44.8323 16.2858 44.9048 16.1006 44.9048ZM8.98092 36.3023C8.98092 37.2186 8.227 37.9613 7.29692 37.9613C6.36684 37.9613 5.61292 37.2186 5.61292 36.3023C5.61292 35.386 6.36684 34.6433 7.29692 34.6433C8.227 34.6433 8.98092 35.3861 8.98092 36.3023ZM17.5094 36.3023C17.5094 37.2186 16.7555 37.9613 15.8254 37.9613C14.8953 37.9613 14.1414 37.2186 14.1414 36.3023C14.1414 35.386 14.8953 34.6433 15.8254 34.6433C16.7555 34.6433 17.5094 35.3861 17.5094 36.3023Z" fill="#554747"/>
</svg>
